# xmcd
#
# Track frame offsets: 
#        150
#        11378
#        22548
#        33859
#        45395
#        59506
#        68638
#        77873
#        88826
#        101197
#        111747
#        125381
#        137339
#        147936
#        162131
#        173967
#        184890
#
# Disc length: 2614 seconds
#
# Revision: 0
# Processed by: cddbd v1.5.2PL0 Copyright (c) Steve Scherf et al.
# Submitted via: ExactAudioCopy v0.95b4
#
DISCID=dd0a3411
DTITLE=Lattimore Brown - Little Box Of Tricks
DYEAR=2006
DGENRE=R&B
TTITLE0=I've Got Everything
TTITLE1=Cruise On Fanny, Cruise On
TTITLE2=Little Bag Of Tricks
TTITLE3=Bless Your Heart I Love You
TTITLE4=I'm Not Through Lovin
TTITLE5=So Says My Heart
TTITLE6=It Hurts So Bad
TTITLE7=It's A Sad Sad World
TTITLE8=I Know I'm Gonna Miss You
TTITLE9=Don't Trust No One
TTITLE10=Nobody Has To Tell Me
TTITLE11=Please Please Please
TTITLE12=Take A Little Time
TTITLE13=Otis Is Gone Pt1
TTITLE14=Otis Is Gone Pt2
TTITLE15=Shake And Vibrate
TTITLE16=Little Bag Of Tricks Pt2
EXTD=
EXTT0=
EXTT1=
EXTT2=
EXTT3=
EXTT4=
EXTT5=
EXTT6=
EXTT7=
EXTT8=
EXTT9=
EXTT10=
EXTT11=
EXTT12=
EXTT13=
EXTT14=
EXTT15=
EXTT16=
PLAYORDER=
